<?xml version="1.0" encoding="UTF-8" standalone="no"?>
<!-- Created with Inkscape (http://www.inkscape.org/) -->

<svg
   xmlns:dc="http://purl.org/dc/elements/1.1/"
   xmlns:cc="http://creativecommons.org/ns#"
   xmlns:rdf="http://www.w3.org/1999/02/22-rdf-syntax-ns#"
   xmlns:svg="http://www.w3.org/2000/svg"
   xmlns="http://www.w3.org/2000/svg"
   xmlns:sodipodi="http://sodipodi.sourceforge.net/DTD/sodipodi-0.dtd"
   xmlns:inkscape="http://www.inkscape.org/namespaces/inkscape"
   width="210mm"
   height="297mm"
   id="svg2"
   version="1.1"
   inkscape:version="0.48.4 r9939"
   sodipodi:docname="DefeatDefeater.svg">
  <defs
     id="defs4" />
  <sodipodi:namedview
     id="base"
     pagecolor="#ffffff"
     bordercolor="#666666"
     borderopacity="1.0"
     inkscape:pageopacity="0.0"
     inkscape:pageshadow="2"
     inkscape:zoom="1.4142136"
     inkscape:cx="498.88156"
     inkscape:cy="407.10701"
     inkscape:document-units="px"
     inkscape:current-layer="layer1"
     showgrid="false"
     inkscape:window-width="1920"
     inkscape:window-height="1138"
     inkscape:window-x="1192"
     inkscape:window-y="371"
     inkscape:window-maximized="1" />
  <metadata
     id="metadata7">
    <rdf:RDF>
      <cc:Work
         rdf:about="">
        <dc:format>image/svg+xml</dc:format>
        <dc:type
           rdf:resource="http://purl.org/dc/dcmitype/StillImage" />
        <dc:title></dc:title>
      </cc:Work>
    </rdf:RDF>
  </metadata>
  <g
     inkscape:label="Ebene 1"
     inkscape:groupmode="layer"
     id="layer1">
    <g
       id="g3056"
       transform="translate(49.179643,10.908711)"
       inkscape:export-filename="Y:\Lehre\2015-WS\Softwaretechnik\Seminar\abgas2.png"
       inkscape:export-xdpi="100"
       inkscape:export-ydpi="100">
      <path
         inkscape:export-ydpi="148.14461"
         inkscape:export-xdpi="148.14461"
         inkscape:export-filename="abgas2.png"
         transform="matrix(-0.33112584,0,0,0.21499872,552.39117,632.80396)"
         d="m 17.142857,420.93362 c 0,28.40322 -23.0253554,51.42857 -51.42857,51.42857 -28.403215,0 -51.42857,-23.02535 -51.42857,-51.42857 0,-28.40321 23.025355,-51.42857 51.42857,-51.42857 28.4032146,0 51.42857,23.02536 51.42857,51.42857 z"
         sodipodi:ry="51.42857"
         sodipodi:rx="51.42857"
         sodipodi:cy="420.93362"
         sodipodi:cx="-34.285713"
         id="path3762"
         style="fill:#999999;fill-opacity:1;stroke:#000000;stroke-width:5;stroke-miterlimit:4;stroke-opacity:1;stroke-dasharray:none"
         sodipodi:type="arc" />
      <path
         inkscape:export-ydpi="148.14461"
         inkscape:export-xdpi="148.14461"
         inkscape:export-filename="abgas2.png"
         transform="matrix(-0.33112584,0,0,0.21499872,404.04679,603.62557)"
         d="m -534.28569,556.64789 c 0,10.25671 -8.31471,18.57143 -18.57143,18.57143 -10.25671,0 -18.57142,-8.31472 -18.57142,-18.57143 0,-10.25672 8.31471,-18.57143 18.57142,-18.57143 10.25672,0 18.57143,8.31471 18.57143,18.57143 z"
         sodipodi:ry="18.571428"
         sodipodi:rx="18.571428"
         sodipodi:cy="556.64789"
         sodipodi:cx="-552.85712"
         id="path3831"
         style="fill:#808080;fill-opacity:1;stroke:#000000;stroke-width:5;stroke-miterlimit:4;stroke-opacity:1;stroke-dasharray:none"
         sodipodi:type="arc" />
    </g>
    <g
       id="g3010"
       transform="translate(2.2888184e-5,3.368164)">
      <path
         inkscape:export-ydpi="102.7"
         inkscape:export-xdpi="102.7"
         inkscape:export-filename="plakette4.png"
         transform="matrix(0.77486508,0,0,0.77486508,422.31068,-36.873295)"
         d="m 308.09652,833.66418 c 0,29.84722 -24.19595,54.04316 -54.04316,54.04316 -29.84721,0 -54.04316,-24.19594 -54.04316,-54.04316 0,-29.84721 24.19595,-54.04315 54.04316,-54.04315 29.84721,0 54.04316,24.19594 54.04316,54.04315 z"
         sodipodi:ry="54.043159"
         sodipodi:rx="54.043159"
         sodipodi:cy="833.66418"
         sodipodi:cx="254.05336"
         id="path3928"
         style="fill:#008000;fill-opacity:1;stroke:#000000;stroke-width:5;stroke-miterlimit:4;stroke-opacity:1;stroke-dasharray:none"
         sodipodi:type="arc" />
      <rect
         inkscape:export-ydpi="102.7"
         inkscape:export-xdpi="102.7"
         inkscape:export-filename="plakette4.png"
         y="618.10541"
         x="595.29443"
         height="16.43737"
         width="48.529381"
         id="rect3930"
         style="fill:#ffffff;fill-opacity:1;stroke:#000000;stroke-width:3.87432528;stroke-miterlimit:4;stroke-opacity:1;stroke-dasharray:none" />
      <text
         inkscape:export-ydpi="102.7"
         inkscape:export-xdpi="102.7"
         inkscape:export-filename="plakette4.png"
         sodipodi:linespacing="125%"
         id="text3932"
         y="608.45203"
         x="606.6004"
         style="font-size:48.62660599px;font-style:normal;font-variant:normal;font-weight:normal;font-stretch:normal;line-height:125%;letter-spacing:0px;word-spacing:0px;fill:#000000;fill-opacity:1;stroke:none;font-family:Linux Biolinum;-inkscape-font-specification:Linux Biolinum"
         xml:space="preserve"><tspan
           y="608.45203"
           x="606.6004"
           id="tspan3934"
           sodipodi:role="line">4</tspan></text>
    </g>
    <g
       id="g3004"
       transform="translate(-149.18251,5.824224)">
      <path
         inkscape:export-ydpi="102.7"
         inkscape:export-xdpi="102.7"
         inkscape:export-filename="plakette3.png"
         transform="matrix(0.77486508,0,0,0.77486508,317.77628,-39.329355)"
         d="m 308.09652,833.66418 c 0,29.84722 -24.19595,54.04316 -54.04316,54.04316 -29.84721,0 -54.04316,-24.19594 -54.04316,-54.04316 0,-29.84721 24.19595,-54.04315 54.04316,-54.04315 29.84721,0 54.04316,24.19594 54.04316,54.04315 z"
         sodipodi:ry="54.043159"
         sodipodi:rx="54.043159"
         sodipodi:cy="833.66418"
         sodipodi:cx="254.05336"
         id="path3928-0"
         style="fill:#f0f000;fill-opacity:1;stroke:#000000;stroke-width:5;stroke-miterlimit:4;stroke-opacity:1;stroke-dasharray:none"
         sodipodi:type="arc" />
      <rect
         inkscape:export-ydpi="102.7"
         inkscape:export-xdpi="102.7"
         inkscape:export-filename="plakette3.png"
         y="615.64923"
         x="490.76004"
         height="16.43737"
         width="48.529381"
         id="rect3930-9"
         style="fill:#ffffff;fill-opacity:1;stroke:#000000;stroke-width:3.87432528;stroke-miterlimit:4;stroke-opacity:1;stroke-dasharray:none" />
      <text
         inkscape:export-ydpi="102.7"
         inkscape:export-xdpi="102.7"
         inkscape:export-filename="plakette3.png"
         sodipodi:linespacing="125%"
         id="text3932-4"
         y="605.99585"
         x="502.06595"
         style="font-size:48.62660599px;font-style:normal;font-variant:normal;font-weight:normal;font-stretch:normal;line-height:125%;letter-spacing:0px;word-spacing:0px;fill:#000000;fill-opacity:1;stroke:none;font-family:Linux Biolinum;-inkscape-font-specification:Linux Biolinum"
         xml:space="preserve"><tspan
           y="605.99585"
           x="502.06595"
           id="tspan3934-8"
           sodipodi:role="line">3</tspan></text>
    </g>
    <g
       id="g3079"
       transform="translate(-109.58989,-62.176673)"
       inkscape:export-filename="Y:\Lehre\2015-WS\Softwaretechnik\Seminar\abgas3.png"
       inkscape:export-xdpi="100"
       inkscape:export-ydpi="100">
      <path
         inkscape:export-ydpi="148.14461"
         inkscape:export-xdpi="148.14461"
         inkscape:export-filename="abgas2.png"
         transform="matrix(-0.33112584,0,0,0.21499872,483.97945,705.88934)"
         d="m 17.142857,420.93362 c 0,28.40322 -23.0253554,51.42857 -51.42857,51.42857 -28.403215,0 -51.42857,-23.02535 -51.42857,-51.42857 0,-28.40321 23.025355,-51.42857 51.42857,-51.42857 28.4032146,0 51.42857,23.02536 51.42857,51.42857 z"
         sodipodi:ry="51.42857"
         sodipodi:rx="51.42857"
         sodipodi:cy="420.93362"
         sodipodi:cx="-34.285713"
         id="path3762-1"
         style="fill:#999999;fill-opacity:1;stroke:#000000;stroke-width:5;stroke-miterlimit:4;stroke-opacity:1;stroke-dasharray:none"
         sodipodi:type="arc" />
      <path
         inkscape:export-ydpi="148.14461"
         inkscape:export-xdpi="148.14461"
         inkscape:export-filename="abgas3.png"
         transform="matrix(-0.33112584,0,0,0.21499872,549.16731,657.66821)"
         d="m 374.28573,645.2193 c 0,52.86154 -42.85275,95.71429 -95.71429,95.71429 -52.86154,0 -95.71429,-42.85275 -95.71429,-95.71429 0,-52.86154 42.85275,-95.71429 95.71429,-95.71429 52.86154,0 95.71429,42.85275 95.71429,95.71429 z"
         sodipodi:ry="95.714287"
         sodipodi:rx="95.714287"
         sodipodi:cy="645.2193"
         sodipodi:cx="278.57144"
         id="path3825-7"
         style="fill:#b3b3b3;fill-opacity:1;stroke:#000000;stroke-width:5;stroke-miterlimit:4;stroke-opacity:1;stroke-dasharray:none"
         sodipodi:type="arc" />
      <path
         inkscape:export-ydpi="148.14461"
         inkscape:export-xdpi="148.14461"
         inkscape:export-filename="abgas2.png"
         transform="matrix(-0.33112584,0,0,0.21499872,335.63508,676.71095)"
         d="m -534.28569,556.64789 c 0,10.25671 -8.31471,18.57143 -18.57143,18.57143 -10.25671,0 -18.57142,-8.31472 -18.57142,-18.57143 0,-10.25672 8.31471,-18.57143 18.57142,-18.57143 10.25672,0 18.57143,8.31471 18.57143,18.57143 z"
         sodipodi:ry="18.571428"
         sodipodi:rx="18.571428"
         sodipodi:cy="556.64789"
         sodipodi:cx="-552.85712"
         id="path3831-0"
         style="fill:#808080;fill-opacity:1;stroke:#000000;stroke-width:5;stroke-miterlimit:4;stroke-opacity:1;stroke-dasharray:none"
         sodipodi:type="arc" />
    </g>
    <g
       id="g2998"
       transform="translate(-286.52197,4.6334669)">
      <path
         inkscape:export-ydpi="102.7"
         inkscape:export-xdpi="102.7"
         inkscape:export-filename="plakette2.png"
         transform="matrix(0.77486508,0,0,0.77486508,203.50908,-38.138598)"
         d="m 308.09652,833.66418 c 0,29.84722 -24.19595,54.04316 -54.04316,54.04316 -29.84721,0 -54.04316,-24.19594 -54.04316,-54.04316 0,-29.84721 24.19595,-54.04315 54.04316,-54.04315 29.84721,0 54.04316,24.19594 54.04316,54.04315 z"
         sodipodi:ry="54.043159"
         sodipodi:rx="54.043159"
         sodipodi:cy="833.66418"
         sodipodi:cx="254.05336"
         id="path3928-8"
         style="fill:#d40000;fill-opacity:1;stroke:#000000;stroke-width:5;stroke-miterlimit:4;stroke-opacity:1;stroke-dasharray:none"
         sodipodi:type="arc" />
      <rect
         inkscape:export-ydpi="102.7"
         inkscape:export-xdpi="102.7"
         inkscape:export-filename="plakette2.png"
         y="616.84015"
         x="376.49289"
         height="16.43737"
         width="48.529381"
         id="rect3930-2"
         style="fill:#ffffff;fill-opacity:1;stroke:#000000;stroke-width:3.87432528;stroke-miterlimit:4;stroke-opacity:1;stroke-dasharray:none" />
      <text
         inkscape:export-ydpi="102.7"
         inkscape:export-xdpi="102.7"
         inkscape:export-filename="plakette2.png"
         sodipodi:linespacing="125%"
         id="text3932-45"
         y="607.18671"
         x="387.7988"
         style="font-size:48.62660599px;font-style:normal;font-variant:normal;font-weight:normal;font-stretch:normal;line-height:125%;letter-spacing:0px;word-spacing:0px;fill:#000000;fill-opacity:1;stroke:none;font-family:Linux Biolinum;-inkscape-font-specification:Linux Biolinum"
         xml:space="preserve"><tspan
           y="607.18671"
           x="387.7988"
           id="tspan3934-5"
           sodipodi:role="line">2</tspan></text>
    </g>
    <g
       id="g3084"
       transform="translate(-331.63307,-165.41426)"
       inkscape:export-filename="Y:\Lehre\2015-WS\Softwaretechnik\Seminar\abgas4.png"
       inkscape:export-xdpi="100.18413"
       inkscape:export-ydpi="100.18413">
      <path
         inkscape:export-ydpi="148.14461"
         inkscape:export-xdpi="148.14461"
         inkscape:export-filename="abgas2.png"
         transform="matrix(-0.33112584,0,0,0.21499872,488.22209,809.12693)"
         d="m 17.142857,420.93362 c 0,28.40322 -23.0253554,51.42857 -51.42857,51.42857 -28.403215,0 -51.42857,-23.02535 -51.42857,-51.42857 0,-28.40321 23.025355,-51.42857 51.42857,-51.42857 28.4032146,0 51.42857,23.02536 51.42857,51.42857 z"
         sodipodi:ry="51.42857"
         sodipodi:rx="51.42857"
         sodipodi:cy="420.93362"
         sodipodi:cx="-34.285713"
         id="path3762-9"
         style="fill:#999999;fill-opacity:1;stroke:#000000;stroke-width:5;stroke-miterlimit:4;stroke-opacity:1;stroke-dasharray:none"
         sodipodi:type="arc" />
      <path
         inkscape:export-ydpi="148.14461"
         inkscape:export-xdpi="148.14461"
         inkscape:export-filename="abgas3.png"
         transform="matrix(-0.33112584,0,0,0.21499872,553.40995,760.9058)"
         d="m 374.28573,645.2193 c 0,52.86154 -42.85275,95.71429 -95.71429,95.71429 -52.86154,0 -95.71429,-42.85275 -95.71429,-95.71429 0,-52.86154 42.85275,-95.71429 95.71429,-95.71429 52.86154,0 95.71429,42.85275 95.71429,95.71429 z"
         sodipodi:ry="95.714287"
         sodipodi:rx="95.714287"
         sodipodi:cy="645.2193"
         sodipodi:cx="278.57144"
         id="path3825-4"
         style="fill:#b3b3b3;fill-opacity:1;stroke:#000000;stroke-width:5;stroke-miterlimit:4;stroke-opacity:1;stroke-dasharray:none"
         sodipodi:type="arc" />
      <path
         inkscape:export-ydpi="148.14461"
         inkscape:export-xdpi="148.14461"
         inkscape:export-filename="abgas4.png"
         transform="matrix(-0.33112584,0,0,0.21499872,600.27265,749.23443)"
         d="m 720.00002,699.50507 c 0,76.53088 -62.04055,138.57142 -138.57143,138.57142 -76.53089,0 -138.57143,-62.04054 -138.57143,-138.57142 0,-76.53089 62.04054,-138.57143 138.57143,-138.57143 76.53088,0 138.57143,62.04054 138.57143,138.57143 z"
         sodipodi:ry="138.57143"
         sodipodi:rx="138.57143"
         sodipodi:cy="699.50507"
         sodipodi:cx="581.42859"
         id="path3827-8"
         style="fill:#e6e6e6;fill-opacity:1;stroke:#000000;stroke-width:5;stroke-miterlimit:4;stroke-opacity:1;stroke-dasharray:none"
         sodipodi:type="arc" />
      <path
         inkscape:export-ydpi="148.14461"
         inkscape:export-xdpi="148.14461"
         inkscape:export-filename="abgas2.png"
         transform="matrix(-0.33112584,0,0,0.21499872,339.87772,779.94854)"
         d="m -534.28569,556.64789 c 0,10.25671 -8.31471,18.57143 -18.57143,18.57143 -10.25671,0 -18.57142,-8.31472 -18.57142,-18.57143 0,-10.25672 8.31471,-18.57143 18.57142,-18.57143 10.25672,0 18.57143,8.31471 18.57143,18.57143 z"
         sodipodi:ry="18.571428"
         sodipodi:rx="18.571428"
         sodipodi:cy="556.64789"
         sodipodi:cx="-552.85712"
         id="path3831-8"
         style="fill:#808080;fill-opacity:1;stroke:#000000;stroke-width:5;stroke-miterlimit:4;stroke-opacity:1;stroke-dasharray:none"
         sodipodi:type="arc" />
    </g>
  </g>
</svg>
